<svg xmlns="http://www.w3.org/2000/svg" xmlns:xlink="http://www.w3.org/1999/xlink" width="500" zoomAndPan="magnify" viewBox="0 0 375 374.999991" height="500" preserveAspectRatio="xMidYMid meet" version="1.2"><defs><clipPath id="4e32072932"><path d="M 161.472656 134.304688 L 202.730469 134.304688 L 202.730469 164.894531 L 161.472656 164.894531 Z M 161.472656 134.304688 "/></clipPath><clipPath id="d3ccd93534"><path d="M 131.335938 174.171875 L 139.417969 174.171875 L 139.417969 206.273438 L 131.335938 206.273438 Z M 131.335938 174.171875 "/></clipPath></defs><g id="57c6d4bfe5"><g style="fill:#ffffff;fill-opacity:1;"><g transform="translate(110.819402, 221.523681)"><path style="stroke:none" d="M 20.53125 -60.8125 L 0 -60.8125 L 0 -106.171875 C 0 -106.984375 0.492188 -107.390625 1.484375 -107.390625 L 19.0625 -107.390625 C 20.039062 -107.390625 20.53125 -106.984375 20.53125 -106.171875 Z M 80.265625 -107.390625 C 81.253906 -107.390625 81.75 -106.984375 81.75 -106.171875 L 81.75 -1.203125 C 81.75 -0.398438 81.253906 0 80.265625 0 L 62.6875 0 C 61.695312 0 61.203125 -0.398438 61.203125 -1.203125 L 61.203125 -20.140625 L 20.53125 -20.140625 L 20.53125 -1.203125 C 20.53125 -0.398438 20.039062 0 19.0625 0 L 1.484375 0 C 0.492188 0 0 -0.398438 0 -1.203125 L 0 -40.265625 L 20.53125 -40.265625 L 20.53125 -40.140625 L 61.203125 -40.140625 L 61.203125 -106.171875 C 61.203125 -106.984375 61.695312 -107.390625 62.6875 -107.390625 Z M 80.265625 -107.390625 "/></g></g><g style="fill:#ffffff;fill-opacity:1;"><g transform="translate(131.216282, 261.496857)"><path style="stroke:none" d="M 1.734375 -6.421875 L 1.734375 -0.625 L 4.828125 -0.625 L 4.828125 0 L 0.96875 0 L 0.96875 -6.421875 Z M 1.734375 -6.421875 "/></g></g><g style="fill:#ffffff;fill-opacity:1;"><g transform="translate(141.952533, 261.496857)"><path style="stroke:none" d="M 3.53125 0.09375 C 2.96875 0.09375 2.46875 -0.0234375 2.03125 -0.265625 C 1.601562 -0.503906 1.265625 -0.867188 1.015625 -1.359375 C 0.765625 -1.859375 0.640625 -2.476562 0.640625 -3.21875 C 0.640625 -3.945312 0.765625 -4.554688 1.015625 -5.046875 C 1.265625 -5.546875 1.601562 -5.914062 2.03125 -6.15625 C 2.46875 -6.394531 2.96875 -6.515625 3.53125 -6.515625 C 4.082031 -6.515625 4.570312 -6.394531 5 -6.15625 C 5.4375 -5.914062 5.78125 -5.546875 6.03125 -5.046875 C 6.28125 -4.554688 6.40625 -3.945312 6.40625 -3.21875 C 6.40625 -2.476562 6.28125 -1.859375 6.03125 -1.359375 C 5.78125 -0.867188 5.4375 -0.503906 5 -0.265625 C 4.570312 -0.0234375 4.082031 0.09375 3.53125 0.09375 Z M 3.53125 -0.609375 C 4.195312 -0.609375 4.707031 -0.816406 5.0625 -1.234375 C 5.414062 -1.648438 5.59375 -2.3125 5.59375 -3.21875 C 5.59375 -4.113281 5.414062 -4.769531 5.0625 -5.1875 C 4.707031 -5.601562 4.195312 -5.8125 3.53125 -5.8125 C 2.144531 -5.8125 1.453125 -4.945312 1.453125 -3.21875 C 1.453125 -1.476562 2.144531 -0.609375 3.53125 -0.609375 Z M 3.53125 -0.609375 "/></g></g><g style="fill:#ffffff;fill-opacity:1;"><g transform="translate(154.64435, 261.496857)"><path style="stroke:none" d="M 5.78125 0 L 4.96875 0 L 4.375 -1.765625 L 1.640625 -1.765625 L 1.046875 0 L 0.25 0 L 2.5 -6.421875 L 3.546875 -6.421875 Z M 2.953125 -5.640625 L 1.859375 -2.390625 L 4.171875 -2.390625 L 3.0625 -5.640625 Z M 2.953125 -5.640625 "/></g></g><g style="fill:#ffffff;fill-opacity:1;"><g transform="translate(166.325426, 261.496857)"><path style="stroke:none" d="M 3.046875 -6.421875 C 3.703125 -6.421875 4.257812 -6.300781 4.71875 -6.0625 C 5.1875 -5.832031 5.546875 -5.476562 5.796875 -5 C 6.054688 -4.53125 6.1875 -3.9375 6.1875 -3.21875 C 6.1875 -2.488281 6.054688 -1.882812 5.796875 -1.40625 C 5.546875 -0.9375 5.1875 -0.582031 4.71875 -0.34375 C 4.257812 -0.113281 3.703125 0 3.046875 0 L 0.96875 0 L 0.96875 -6.421875 Z M 2.96875 -0.640625 C 3.507812 -0.640625 3.953125 -0.722656 4.296875 -0.890625 C 4.648438 -1.054688 4.914062 -1.328125 5.09375 -1.703125 C 5.28125 -2.085938 5.375 -2.59375 5.375 -3.21875 C 5.375 -3.84375 5.28125 -4.34375 5.09375 -4.71875 C 4.914062 -5.09375 4.648438 -5.363281 4.296875 -5.53125 C 3.953125 -5.695312 3.507812 -5.78125 2.96875 -5.78125 L 1.734375 -5.78125 L 1.734375 -0.640625 Z M 2.96875 -0.640625 "/></g></g><g style="fill:#ffffff;fill-opacity:1;"><g transform="translate(178.797517, 261.496857)"><path style="stroke:none" d="M 1.734375 0 L 0.96875 0 L 0.96875 -6.421875 L 1.734375 -6.421875 Z M 1.734375 0 "/></g></g><g style="fill:#ffffff;fill-opacity:1;"><g transform="translate(187.143143, 261.496857)"><path style="stroke:none" d="M 1.703125 0 L 0.96875 0 L 0.96875 -6.421875 L 1.90625 -6.421875 L 5.03125 -1.515625 L 5.140625 -1.53125 L 5.140625 -6.421875 L 5.875 -6.421875 L 5.875 0 L 5.078125 0 L 1.8125 -5.25 L 1.703125 -5.234375 Z M 1.703125 0 "/></g></g><g style="fill:#ffffff;fill-opacity:1;"><g transform="translate(199.637206, 261.496857)"><path style="stroke:none" d="M 3.375 0.09375 C 2.84375 0.09375 2.367188 -0.0234375 1.953125 -0.265625 C 1.546875 -0.515625 1.222656 -0.882812 0.984375 -1.375 C 0.753906 -1.875 0.640625 -2.488281 0.640625 -3.21875 C 0.640625 -3.9375 0.765625 -4.539062 1.015625 -5.03125 C 1.265625 -5.53125 1.609375 -5.898438 2.046875 -6.140625 C 2.484375 -6.390625 2.988281 -6.515625 3.5625 -6.515625 C 4.175781 -6.515625 4.679688 -6.40625 5.078125 -6.1875 C 5.472656 -5.96875 5.753906 -5.632812 5.921875 -5.1875 L 5.421875 -4.90625 L 5.3125 -4.90625 C 5.144531 -5.238281 4.921875 -5.476562 4.640625 -5.625 C 4.359375 -5.769531 4 -5.84375 3.5625 -5.84375 C 2.15625 -5.84375 1.453125 -4.96875 1.453125 -3.21875 C 1.453125 -2.300781 1.628906 -1.632812 1.984375 -1.21875 C 2.335938 -0.800781 2.832031 -0.59375 3.46875 -0.59375 C 4.050781 -0.59375 4.488281 -0.722656 4.78125 -0.984375 C 5.070312 -1.253906 5.21875 -1.675781 5.21875 -2.25 L 5.21875 -2.8125 L 3.390625 -2.8125 L 3.390625 -3.421875 L 5.953125 -3.421875 L 5.953125 0 L 5.265625 0 L 5.265625 -0.859375 L 5.171875 -0.890625 C 4.992188 -0.554688 4.753906 -0.304688 4.453125 -0.140625 C 4.148438 0.015625 3.789062 0.09375 3.375 0.09375 Z M 3.375 0.09375 "/></g></g><path style=" stroke:none;fill-rule:nonzero;fill:#ffffff;fill-opacity:1;" d="M 97.996094 258.496094 L 115.996094 258.496094 L 115.996094 261.496094 L 97.996094 261.496094 M 118.996094 258.496094 L 125.457031 258.496094 L 125.457031 261.496094 L 118.996094 261.496094 "/><path style=" stroke:none;fill-rule:nonzero;fill:#ffffff;fill-opacity:1;" d="M 240.730469 261.496094 L 222.730469 261.496094 L 222.730469 258.496094 L 240.730469 258.496094 M 219.730469 261.496094 L 213.273438 261.496094 L 213.273438 258.496094 L 219.730469 258.496094 "/><g style="fill:#ffffff;fill-opacity:1;"><g transform="translate(202.737974, 221.523681)"><path style="stroke:none" d="M 36.109375 -107.390625 C 37.003906 -107.390625 38.789062 -107.273438 41.46875 -107.046875 C 44.15625 -106.828125 47.222656 -106.203125 50.671875 -105.171875 C 54.117188 -104.140625 57.5 -102.484375 60.8125 -100.203125 C 64.125 -97.921875 66.875 -94.765625 69.0625 -90.734375 C 71.257812 -86.710938 72.359375 -81.523438 72.359375 -75.171875 C 72.359375 -69.890625 71.550781 -65.4375 69.9375 -61.8125 C 68.320312 -58.1875 66.191406 -55.207031 63.546875 -52.875 C 60.910156 -50.550781 58.113281 -48.71875 55.15625 -47.375 C 52.207031 -46.039062 49.367188 -45.082031 46.640625 -44.5 C 43.910156 -43.914062 41.582031 -43.554688 39.65625 -43.421875 C 37.738281 -43.285156 36.554688 -43.21875 36.109375 -43.21875 L 20.140625 -43.21875 L 20.140625 -1.203125 C 20.140625 -0.398438 19.691406 0 18.796875 0 L 1.34375 0 C 0.445312 0 0 -0.398438 0 -1.203125 L 0 -63.09375 L 36.109375 -63.09375 C 36.828125 -63.09375 38.015625 -63.179688 39.671875 -63.359375 C 41.328125 -63.535156 43.113281 -63.984375 45.03125 -64.703125 C 46.957031 -65.421875 48.59375 -66.601562 49.9375 -68.25 C 51.28125 -69.90625 51.953125 -72.210938 51.953125 -75.171875 C 51.953125 -78.117188 51.253906 -80.441406 49.859375 -82.140625 C 48.472656 -83.847656 46.816406 -85.082031 44.890625 -85.84375 C 42.972656 -86.601562 41.1875 -87.09375 39.53125 -87.3125 C 37.875 -87.539062 36.734375 -87.65625 36.109375 -87.65625 L 0 -87.65625 L 0 -106.171875 C 0 -106.984375 0.445312 -107.390625 1.34375 -107.390625 Z M 36.109375 -107.390625 "/></g></g><g clip-rule="nonzero" clip-path="url(#4e32072932)"><path style=" stroke:none;fill-rule:nonzero;fill:#1e1e1e;fill-opacity:1;" d="M 161.472656 134.304688 L 202.699219 134.304688 L 202.699219 164.894531 L 161.472656 164.894531 Z M 161.472656 134.304688 "/></g><g clip-rule="nonzero" clip-path="url(#d3ccd93534)"><path style=" stroke:none;fill-rule:nonzero;fill:#1e1e1e;fill-opacity:1;" d="M 131.335938 174.171875 L 139.417969 174.171875 L 139.417969 206.261719 L 131.335938 206.261719 Z M 131.335938 174.171875 "/></g><g style="fill:#ffffff;fill-opacity:1;"><g transform="translate(119.427374, 249.396838)"><path style="stroke:none" d="M 0.765625 0 L 0.765625 -17.1875 L 4.1875 -17.1875 L 4.1875 -11.046875 L 5.796875 -11.046875 L 5.796875 -17.1875 L 9.21875 -17.1875 L 9.21875 0 L 5.796875 0 L 5.796875 -7.796875 L 4.1875 -7.796875 L 4.1875 0 Z M 0.765625 0 "/></g></g><g style="fill:#ffffff;fill-opacity:1;"><g transform="translate(132.823415, 249.396838)"><path style="stroke:none" d="M 0.296875 0 L 1.953125 -17.1875 L 7.78125 -17.1875 L 9.421875 0 L 6.15625 0 L 5.921875 -2.78125 L 3.84375 -2.78125 L 3.640625 0 Z M 4.09375 -5.515625 L 5.65625 -5.515625 L 4.90625 -14.265625 L 4.734375 -14.265625 Z M 4.09375 -5.515625 "/></g></g><g style="fill:#ffffff;fill-opacity:1;"><g transform="translate(145.939568, 249.396838)"><path style="stroke:none" d="M 0.765625 -17.1875 L 6.046875 -17.1875 C 6.878906 -17.1875 7.523438 -16.992188 7.984375 -16.609375 C 8.453125 -16.234375 8.765625 -15.703125 8.921875 -15.015625 C 9.078125 -14.328125 9.15625 -13.445312 9.15625 -12.375 C 9.15625 -11.40625 9.03125 -10.644531 8.78125 -10.09375 C 8.53125 -9.550781 8.085938 -9.171875 7.453125 -8.953125 C 7.972656 -8.847656 8.347656 -8.585938 8.578125 -8.171875 C 8.816406 -7.765625 8.9375 -7.207031 8.9375 -6.5 L 8.90625 0 L 5.546875 0 L 5.546875 -6.71875 C 5.546875 -7.195312 5.453125 -7.503906 5.265625 -7.640625 C 5.078125 -7.773438 4.734375 -7.84375 4.234375 -7.84375 L 4.234375 0 L 0.765625 0 Z M 5.078125 -10.8125 C 5.554688 -10.8125 5.796875 -11.332031 5.796875 -12.375 C 5.796875 -12.832031 5.773438 -13.171875 5.734375 -13.390625 C 5.703125 -13.617188 5.628906 -13.773438 5.515625 -13.859375 C 5.410156 -13.953125 5.257812 -14 5.0625 -14 L 4.265625 -14 L 4.265625 -10.8125 Z M 5.078125 -10.8125 "/></g></g><g style="fill:#ffffff;fill-opacity:1;"><g transform="translate(158.895778, 249.396838)"><path style="stroke:none" d="M 4.84375 0.15625 C 3.28125 0.15625 2.148438 -0.226562 1.453125 -1 C 0.765625 -1.769531 0.421875 -3.015625 0.421875 -4.734375 L 0.421875 -6.421875 L 3.796875 -6.421875 L 3.796875 -4.28125 C 3.796875 -3.425781 4.070312 -3 4.625 -3 C 4.925781 -3 5.132812 -3.085938 5.25 -3.265625 C 5.375 -3.453125 5.4375 -3.757812 5.4375 -4.1875 C 5.4375 -4.738281 5.367188 -5.195312 5.234375 -5.5625 C 5.109375 -5.9375 4.941406 -6.242188 4.734375 -6.484375 C 4.523438 -6.734375 4.15625 -7.117188 3.625 -7.640625 L 2.140625 -9.125 C 0.992188 -10.238281 0.421875 -11.476562 0.421875 -12.84375 C 0.421875 -14.3125 0.753906 -15.425781 1.421875 -16.1875 C 2.097656 -16.957031 3.082031 -17.34375 4.375 -17.34375 C 5.925781 -17.34375 7.039062 -16.929688 7.71875 -16.109375 C 8.394531 -15.285156 8.734375 -14.003906 8.734375 -12.265625 L 5.234375 -12.265625 L 5.21875 -13.4375 C 5.21875 -13.664062 5.15625 -13.847656 5.03125 -13.984375 C 4.90625 -14.117188 4.726562 -14.1875 4.5 -14.1875 C 4.226562 -14.1875 4.023438 -14.109375 3.890625 -13.953125 C 3.765625 -13.804688 3.703125 -13.609375 3.703125 -13.359375 C 3.703125 -12.796875 4.019531 -12.21875 4.65625 -11.625 L 6.65625 -9.703125 C 7.125 -9.242188 7.507812 -8.8125 7.8125 -8.40625 C 8.125 -8 8.375 -7.519531 8.5625 -6.96875 C 8.75 -6.414062 8.84375 -5.757812 8.84375 -5 C 8.84375 -3.300781 8.53125 -2.015625 7.90625 -1.140625 C 7.289062 -0.273438 6.269531 0.15625 4.84375 0.15625 Z M 4.84375 0.15625 "/></g></g><g style="fill:#ffffff;fill-opacity:1;"><g transform="translate(171.532114, 249.396838)"><path style="stroke:none" d="M 0.765625 0 L 0.765625 -17.1875 L 4.1875 -17.1875 L 4.1875 -11.046875 L 5.796875 -11.046875 L 5.796875 -17.1875 L 9.21875 -17.1875 L 9.21875 0 L 5.796875 0 L 5.796875 -7.796875 L 4.1875 -7.796875 L 4.1875 0 Z M 0.765625 0 "/></g></g><g style="fill:#ffffff;fill-opacity:1;"><g transform="translate(184.928155, 249.396838)"><path style="stroke:none" d=""/></g></g><g style="fill:#ffffff;fill-opacity:1;"><g transform="translate(193.02628, 249.396838)"><path style="stroke:none" d="M 0.765625 -17.1875 L 5.296875 -17.1875 C 6.671875 -17.1875 7.648438 -16.738281 8.234375 -15.84375 C 8.828125 -14.957031 9.125 -13.660156 9.125 -11.953125 C 9.125 -10.253906 8.863281 -8.96875 8.34375 -8.09375 C 7.820312 -7.226562 6.890625 -6.796875 5.546875 -6.796875 L 4.140625 -6.796875 L 4.140625 0 L 0.765625 0 Z M 4.34375 -9.90625 C 4.75 -9.90625 5.050781 -9.976562 5.25 -10.125 C 5.445312 -10.28125 5.570312 -10.5 5.625 -10.78125 C 5.6875 -11.070312 5.71875 -11.484375 5.71875 -12.015625 C 5.71875 -12.734375 5.632812 -13.253906 5.46875 -13.578125 C 5.3125 -13.898438 4.992188 -14.0625 4.515625 -14.0625 L 4.140625 -14.0625 L 4.140625 -9.90625 Z M 4.34375 -9.90625 "/></g></g><g style="fill:#ffffff;fill-opacity:1;"><g transform="translate(205.882538, 249.396838)"><path style="stroke:none" d="M 0.296875 0 L 1.953125 -17.1875 L 7.78125 -17.1875 L 9.421875 0 L 6.15625 0 L 5.921875 -2.78125 L 3.84375 -2.78125 L 3.640625 0 Z M 4.09375 -5.515625 L 5.65625 -5.515625 L 4.90625 -14.265625 L 4.734375 -14.265625 Z M 4.09375 -5.515625 "/></g></g><g style="fill:#ffffff;fill-opacity:1;"><g transform="translate(218.998691, 249.396838)"><path style="stroke:none" d="M 0.765625 0 L 0.765625 -17.1875 L 4.203125 -17.1875 L 4.203125 -2.921875 L 7.734375 -2.921875 L 7.734375 0 Z M 0.765625 0 "/></g></g></g></svg>